<svg xmlns="http://www.w3.org/2000/svg" width="64" height="44" viewBox="0 0 64 44"><defs><style>.a{fill:#bbbab9;}</style></defs><path class="a" d="M32,4A15.782,15.782,0,0,0,16.375,18.25a9.789,9.789,0,0,0-7.687,6.438A11.817,11.817,0,0,0,0,36,11.974,11.974,0,0,0,12,48H52a11.84,11.84,0,0,0,7.813-20.875,13.9,13.9,0,0,0-13.125-13A15.908,15.908,0,0,0,32,4Zm0,4a11.913,11.913,0,0,1,11.5,8.563L43.938,18H46A10.018,10.018,0,0,1,56,28v1l.813.625A8.146,8.146,0,0,1,60,36a7.834,7.834,0,0,1-8,8H12a7.969,7.969,0,0,1-1.437-15.812l1.313-.25.25-1.312A5.935,5.935,0,0,1,18,22h2V20A11.859,11.859,0,0,1,32,8Zm0,11.188-1.437,1.375-8,8,2.875,2.875L30,26.875V40h4V26.875l4.563,4.563,2.875-2.875-8-8Z" transform="translate(0 -4)"/></svg>