<?xml version="1.0" encoding="utf-8"?>
<!-- Generator: Adobe Illustrator 22.1.0, SVG Export Plug-In . SVG Version: 6.00 Build 0)  -->
<svg version="1.1" id="Layer_1" xmlns="http://www.w3.org/2000/svg" xmlns:xlink="http://www.w3.org/1999/xlink" x="0px" y="0px"
	 viewBox="0 0 322.5 162.4" style="enable-background:new 0 0 322.5 162.4;" xml:space="preserve">
<style type="text/css">
	.st0{fill:#00A851;}
	.st1{fill:#53626F;}
</style>
<g>
	<g>
		<g>
			<path class="st0" d="M98.2,118H76.6L61.8,63.9L47.1,118H25.4L0,36.3h22.2l14.3,57.1l14.9-57.1h20.9l14.9,57.1l14.3-57.1h22.2
				L98.2,118z"/>
			<path class="st0" d="M159.7,119.9c-20.8,0-36.2-10.9-38.7-28.5h21.2c2.9,7,11.3,9.5,17.5,9.5c8.4,0,14.8-2.5,14.8-7.3
				c0-4.6-2.9-6.5-17.1-8.7c-14.6-2.2-34.1-6.2-34.1-24.4c0-12.9,11.3-26.2,34.9-26.2c18.7,0,32.7,10.1,35.4,25.5h-21.7
				C170.6,56,166,53,158.2,53c-9.7,0-13.6,3.5-13.6,6.5c0,4.3,6,5.7,16.2,7.3c20.3,3.3,34.9,7.8,34.9,25.5
				C195.6,108.5,180.7,119.9,159.7,119.9z"/>
			<path class="st0" d="M225.4,118h-20.9V36.3h20.9V118z"/>
			<path class="st0" d="M283.6,119.7c-9.8,0-18.5-3.8-24.9-10.5v8.7h-20.1V0h21.1v44.1c6.2-6,14.6-9.5,24-9.5
				c21.4,0,38.8,18.4,38.8,42.7C322.5,101.3,305,119.7,283.6,119.7z M280.6,53.9c-11.6,0-20.9,10.5-20.9,23.5c0,12.7,9.4,23,20.9,23
				c11.6,0,20.9-10,20.9-23C301.5,64.1,292.2,53.9,280.6,53.9z"/>
		</g>
		<path class="st0" d="M202.9,13.6c0-6.6,5.4-12,12-12c6.6,0,12,5.4,12,12c0,6.6-5.4,12-12,12C208.3,25.7,202.9,20.3,202.9,13.6z"/>
	</g>
	<g>
		<g>
			<path class="st1" d="M48.4,150.1c0,7.1-5,12.8-12,12.8c-6.9,0-12-5.6-12-12.8c0-7.1,5-12.7,12-12.7
				C43.3,137.4,48.4,143,48.4,150.1z M43.7,150.1c0-4.5-3.2-8.3-7.3-8.3c-4.1,0-7.3,3.8-7.3,8.3c0,4.6,3.2,8.4,7.3,8.4
				C40.4,158.4,43.7,154.7,43.7,150.1z"/>
			<path class="st1" d="M93.7,162.4h-5.6l-10-17.4v17.4h-4.6V138h5.6l9.9,17.4V138h4.7L93.7,162.4L93.7,162.4z"/>
			<path class="st1" d="M129,142.3v20.1h-4.6v-20.1h-6.6V138h17.8v4.3H129z"/>
			<path class="st1" d="M162.2,157.5l-1.7,4.9h-4.9l8.5-24.5h5.9l8.5,24.5h-4.9l-1.7-4.9H162.2z M167,143.1l-3.4,10h6.8L167,143.1z"
				/>
			<path class="st1" d="M221.9,162.4h-4.7c-0.3-0.7-0.5-1.5-0.5-2.7V156c0-2.1-1-3-3.2-3h-6.4v9.5h-4.6V138h11.2
				c5.1,0,8.4,2.7,8.4,7.3c0,2.8-1.3,4.6-3.4,5.6c1.7,1,2.7,2.6,2.7,5.2v3.4C221.3,160.4,221.6,161.7,221.9,162.4z M213.8,148.8
				c0.6,0,3.6-0.2,3.6-3.3c0-0.8,0-3.2-3.7-3.2h-6.5v6.5H213.8z"/>
			<path class="st1" d="M252.5,162.4h-4.6V138h4.6V162.4z"/>
			<path class="st1" d="M301.5,150.1c0,7.1-5,12.8-12,12.8c-7,0-12-5.6-12-12.8c0-7.1,5-12.7,12-12.7
				C296.5,137.4,301.5,143,301.5,150.1z M296.8,150.1c0-4.5-3.2-8.3-7.3-8.3c-4.1,0-7.3,3.8-7.3,8.3c0,4.6,3.2,8.4,7.3,8.4
				C293.6,158.4,296.8,154.7,296.8,150.1z"/>
		</g>
	</g>
</g>
</svg>
